<svg width="10" height="8" fill="none" xmlns="http://www.w3.org/2000/svg"><path d="M8.736.133c-.246.05-.1-.084-2.779 2.59L3.467 5.21l-.938-.938c-1.011-1.01-1.033-1.028-1.283-1.075a.596.596 0 00-.242-.002c-.22.045-.309.104-.598.39-.222.226-.277.292-.332.405-.058.125-.064.153-.064.322 0 .163.008.202.056.313.055.12.15.22 1.56 1.635 1.088 1.088 1.533 1.52 1.605 1.562a.52.52 0 00.471.002c.074-.039.844-.799 3.137-3.095 2.892-2.897 3.04-3.05 3.096-3.17a.604.604 0 00.056-.313c0-.267-.053-.373-.344-.674-.246-.254-.365-.35-.501-.4a.895.895 0 00-.409-.04z" fill="#fff"/></svg>