<svg width="215" height="53" fill="none" xmlns="http://www.w3.org/2000/svg"><g clip-path="url(#clip0_1_1072)"><path d="M33.314 6.962h22.658l-1.395 4.599h-8.102v17.034h-5.167V11.56h-7.99V6.962h-.004zm30.205 0v21.633h-5.17V6.962h5.17zm31.178 0v21.633H89.53V16.163l-6.595 11.736H79.47l-6.595-11.261v11.96h-5.17v-20.8l5.17-1.393 8.38 15.306 8.27-14.745h5.167l.004-.004zm9.357 17.034h15.813l-1.396 4.599H98.887V6.962h20.983l-1.395 4.599h-14.417v3.93h13.44v4.6h-13.44v3.902l-.004.003zm40.428-17.034l-1.396 4.599h-11.901c-2.848 0-4.33 3.206-4.33 6.355 0 3.149 1.396 6.077 4.33 6.077h13.301l-1.396 4.598h-12.517c-6.037 0-9.164-5.548-9.164-11.01 0-5.463 2.988-10.622 9.164-10.622h13.913l-.004.003zm7.432-.557v9.647h11.343v-9.09h5.168v21.633h-5.168V20.65h-11.343v7.944h-5.17V7.798l5.17-1.393zm29.249 14.885h6.062l-4.247-8.976-7.543 16.28h-5.45l10.309-20.796 5.167-1.393 10.674 22.19h-5.45l-1.37-2.9h-10.059l1.9-4.405h.007zm11.179-14.328H215l-1.396 4.599h-8.101v17.034h-5.167V11.56h-7.99V6.962h-.004z" fill="#000"/><path d="M14.331.01c2.484 0 4.97-.031 7.454.008 2.333.036 4.147 1.146 5.26 3.124 1.242 2.21 1.091 4.474-.465 6.544-.723.964-1.453 1.939-2.294 2.792-.866.875-1.84 1.653-2.827 2.392-2.021 1.507-4.086 2.957-6.13 4.435-2.358 1.706-4.73 3.388-7.052 5.137-1.006.757-1.922 1.643-2.838 2.51-.397.375-.794.804-1.023 1.29-.73 1.549.719 2.524 1.932 2.534 4.813.05 9.626.072 14.439 0 1.646-.025 2.773-1.1 2.336-2.556-.222-.732-.809-1.382-1.331-1.985-.98-1.136-1.657-2.396-1.517-3.903.079-.835.436-1.656.748-2.456.21-.55.604-.246.83.004 1.138 1.27 2.304 2.52 3.342 3.87.737.96 1.395 2.02 1.886 3.124.622 1.41.461 2.906-.183 4.284-1.21 2.585-3.324 3.82-6.154 3.828-4.867.014-9.73.039-14.596-.011-2.487-.025-5.092-1.589-5.83-4.07-.672-2.267-.329-4.53 1.536-6.255 1.678-1.557 3.388-3.082 5.167-4.517 1.724-1.396 3.546-2.678 5.346-3.974 2.415-1.742 4.938-3.349 7.257-5.212 1.392-1.118 2.594-2.525 3.678-3.96.805-1.064 0-2.731-1.395-2.749-5.096-.064-10.195-.029-15.294-.025-.945 0-1.528.693-1.818 1.392-.2.486.004 1.264.276 1.782.386.732 1.012 1.335 1.513 2.01.938 1.275 1.353 2.656.809 4.217-.165.474-.286.967-.501 1.417-.204.428-.612.346-.873.09-1.94-1.914-3.808-3.935-5.042-6.356C-.161 6.537.254 3.2 3.11 1.242A6.845 6.845 0 017.03.014c2.434-.018 4.867-.003 7.297-.003h.003z" fill="url(#paint0_linear_1_1072)"/><path d="M13.938 22.954l-6.363 5.87H20.3l-6.362-5.87z" fill="url(#paint1_linear_1_1072)"/><path d="M13.938 12.343l-6.363-5.87H20.3l-6.362 5.87z" fill="url(#paint2_linear_1_1072)"/></g><path d="M45.393 39.2V49h-1.302v-8.568h-4.508V49h-1.302v-9.8h7.112zm7.773 2.8h1.218v7h-1.218v-1.204c-.606.924-1.488 1.386-2.646 1.386-.98 0-1.815-.355-2.506-1.064-.69-.719-1.036-1.591-1.036-2.618s.346-1.895 1.036-2.604c.691-.719 1.526-1.078 2.506-1.078 1.158 0 2.04.462 2.646 1.386V42zm-2.492 6.006c.71 0 1.302-.238 1.778-.714.476-.485.714-1.083.714-1.792 0-.71-.238-1.302-.714-1.778-.476-.485-1.068-.728-1.778-.728-.7 0-1.288.243-1.764.728-.476.476-.714 1.069-.714 1.778 0 .71.238 1.307.714 1.792.476.476 1.064.714 1.764.714zm9.42-6.188c.98 0 1.815.36 2.506 1.078.69.71 1.036 1.577 1.036 2.604 0 1.027-.346 1.9-1.036 2.618-.691.71-1.526 1.064-2.506 1.064-1.158 0-2.04-.462-2.646-1.386V51.8H56.23V42h1.218v1.204c.606-.924 1.488-1.386 2.646-1.386zm-.154 6.188c.7 0 1.288-.238 1.764-.714.476-.485.714-1.083.714-1.792 0-.71-.238-1.302-.714-1.778-.476-.485-1.064-.728-1.764-.728-.71 0-1.302.243-1.778.728-.476.476-.714 1.069-.714 1.778 0 .71.238 1.307.714 1.792.476.476 1.068.714 1.778.714zM70.024 42v1.176h-2.38V49h-1.218v-5.824h-2.394V42h5.992zm5.911 0h1.218v7h-1.218v-2.926h-3.626V49h-1.218v-7h1.218v2.912h3.626V42zm3.926 4.06c.121.625.406 1.11.854 1.456.457.345 1.017.518 1.68.518.924 0 1.596-.34 2.016-1.022l1.036.588c-.681 1.055-1.708 1.582-3.08 1.582-1.11 0-2.016-.345-2.716-1.036-.69-.7-1.036-1.582-1.036-2.646 0-1.055.34-1.932 1.022-2.632.681-.7 1.563-1.05 2.646-1.05 1.027 0 1.862.364 2.506 1.092.653.719.98 1.587.98 2.604 0 .177-.014.36-.042.546h-5.866zm2.422-3.094c-.653 0-1.195.187-1.624.56-.43.364-.695.854-.798 1.47h4.676c-.103-.663-.364-1.167-.784-1.512a2.245 2.245 0 00-1.47-.518zm8.75-1.148c.98 0 1.816.36 2.506 1.078.69.71 1.036 1.577 1.036 2.604 0 1.027-.345 1.9-1.036 2.618-.69.71-1.526 1.064-2.506 1.064-1.157 0-2.04-.462-2.646-1.386V51.8H87.17V42h1.218v1.204c.607-.924 1.489-1.386 2.646-1.386zm-.154 6.188c.7 0 1.288-.238 1.764-.714.476-.485.714-1.083.714-1.792 0-.71-.238-1.302-.714-1.778-.476-.485-1.064-.728-1.764-.728-.71 0-1.302.243-1.778.728-.476.476-.714 1.069-.714 1.778 0 .71.238 1.307.714 1.792.476.476 1.069.714 1.778.714zm8.44 1.176c-1.055 0-1.933-.35-2.633-1.05-.7-.71-1.05-1.587-1.05-2.632 0-1.045.35-1.918 1.05-2.618.7-.71 1.578-1.064 2.632-1.064a3.5 3.5 0 011.862.504c.551.327.962.77 1.232 1.33l-1.022.588a2.058 2.058 0 00-.826-.896 2.327 2.327 0 00-1.245-.336c-.7 0-1.288.238-1.764.714-.467.476-.7 1.069-.7 1.778 0 .7.233 1.288.7 1.764.475.476 1.063.714 1.763.714.467 0 .887-.107 1.26-.322.374-.224.658-.523.854-.896l1.036.602c-.298.55-.728.994-1.288 1.33-.56.327-1.18.49-1.862.49zM109.606 49h-1.512l-3.192-3.318V49h-1.218v-7h1.218v3.094L107.927 42h1.568l-3.346 3.388L109.607 49zm6.286-7h1.218v7h-1.218v-1.204c-.607.924-1.489 1.386-2.646 1.386-.98 0-1.815-.355-2.506-1.064-.691-.719-1.036-1.591-1.036-2.618s.345-1.895 1.036-2.604c.691-.719 1.526-1.078 2.506-1.078 1.157 0 2.039.462 2.646 1.386V42zm-2.492 6.006c.709 0 1.302-.238 1.778-.714.476-.485.714-1.083.714-1.792 0-.71-.238-1.302-.714-1.778-.476-.485-1.069-.728-1.778-.728-.7 0-1.288.243-1.764.728-.476.476-.714 1.069-.714 1.778 0 .71.238 1.307.714 1.792.476.476 1.064.714 1.764.714zM124.192 42v7h-1.204v-2.52h-1.022l-1.96 2.52h-1.484l2.044-2.59a2.357 2.357 0 01-1.274-.784 2.082 2.082 0 01-.49-1.372c0-.644.229-1.18.686-1.61.458-.43 1.032-.644 1.722-.644h2.982zm-2.94 3.388h1.736v-2.254h-1.736c-.345 0-.639.103-.882.308-.242.205-.364.48-.364.826 0 .336.122.607.364.812.243.205.537.308.882.308zM135.6 42v7h-1.218v-5.838h-3.626V49h-1.218v-7h6.062zm5.718-.182c.98 0 1.816.36 2.506 1.078.691.71 1.036 1.577 1.036 2.604 0 1.027-.345 1.9-1.036 2.618-.69.71-1.526 1.064-2.506 1.064-1.157 0-2.039-.462-2.646-1.386V51.8h-1.218V42h1.218v1.204c.607-.924 1.489-1.386 2.646-1.386zm-.154 6.188c.7 0 1.288-.238 1.764-.714.476-.485.714-1.083.714-1.792 0-.71-.238-1.302-.714-1.778-.476-.485-1.064-.728-1.764-.728-.709 0-1.302.243-1.778.728-.476.476-.714 1.069-.714 1.778 0 .71.238 1.307.714 1.792.476.476 1.069.714 1.778.714zm11.058.112c-.719.71-1.592 1.064-2.618 1.064-1.027 0-1.9-.355-2.618-1.064-.71-.71-1.064-1.582-1.064-2.618 0-1.036.354-1.909 1.064-2.618.718-.71 1.591-1.064 2.618-1.064 1.026 0 1.899.355 2.618 1.064.718.71 1.078 1.582 1.078 2.618 0 1.036-.36 1.909-1.078 2.618zm-2.618-.126c.7 0 1.288-.238 1.764-.714s.714-1.069.714-1.778c0-.71-.238-1.302-.714-1.778s-1.064-.714-1.764-.714c-.691 0-1.274.238-1.75.714s-.714 1.069-.714 1.778c0 .71.238 1.302.714 1.778s1.059.714 1.75.714zM159.328 42v1.176h-3.374V49h-1.218v-7h4.592zm4.932-.182c.98 0 1.815.36 2.506 1.078.69.71 1.036 1.577 1.036 2.604 0 1.027-.346 1.9-1.036 2.618-.691.71-1.526 1.064-2.506 1.064-1.158 0-2.04-.462-2.646-1.386V51.8h-1.218V42h1.218v1.204c.606-.924 1.488-1.386 2.646-1.386zm-.154 6.188c.7 0 1.288-.238 1.764-.714.476-.485.714-1.083.714-1.792 0-.71-.238-1.302-.714-1.778-.476-.485-1.064-.728-1.764-.728-.71 0-1.302.243-1.778.728-.476.476-.714 1.069-.714 1.778 0 .71.238 1.307.714 1.792.476.476 1.068.714 1.778.714zM175.051 42h1.218v7h-1.218v-1.204c-.607.924-1.489 1.386-2.646 1.386-.98 0-1.815-.355-2.506-1.064-.691-.719-1.036-1.591-1.036-2.618s.345-1.895 1.036-2.604c.691-.719 1.526-1.078 2.506-1.078 1.157 0 2.039.462 2.646 1.386V42zm-2.492 6.006c.709 0 1.302-.238 1.778-.714.476-.485.714-1.083.714-1.792 0-.71-.238-1.302-.714-1.778-.476-.485-1.069-.728-1.778-.728-.7 0-1.288.243-1.764.728-.476.476-.714 1.069-.714 1.778 0 .71.238 1.307.714 1.792.476.476 1.064.714 1.764.714zM185.114 42v7h-1.19v-5.082l-2.226 3.584h-.154l-2.226-3.584V49h-1.204v-7h1.302l2.198 3.542L183.812 42h1.302zm8.86 0v7h-1.19v-5.082l-2.226 3.584h-.154l-2.226-3.584V49h-1.204v-7h1.302l2.198 3.542L192.672 42h1.302zm7.655 0h1.218v7h-1.218v-1.204c-.606.924-1.488 1.386-2.646 1.386-.98 0-1.815-.355-2.506-1.064-.69-.719-1.036-1.591-1.036-2.618s.346-1.895 1.036-2.604c.691-.719 1.526-1.078 2.506-1.078 1.158 0 2.04.462 2.646 1.386V42zm-2.492 6.006c.71 0 1.302-.238 1.778-.714.476-.485.714-1.083.714-1.792 0-.71-.238-1.302-.714-1.778-.476-.485-1.068-.728-1.778-.728-.7 0-1.288.243-1.764.728-.476.476-.714 1.069-.714 1.778 0 .71.238 1.307.714 1.792.476.476 1.064.714 1.764.714z" fill="#000"/><defs><linearGradient id="paint0_linear_1_1072" x1="-.912" y1="-5.163" x2="26.818" y2="37.513" gradientUnits="userSpaceOnUse"><stop stop-color="#84BB59"/><stop offset="1" stop-color="#2AA2D6"/></linearGradient><linearGradient id="paint1_linear_1_1072" x1="7.575" y1="25.889" x2="20.3" y2="25.889" gradientUnits="userSpaceOnUse"><stop stop-color="#84BB59"/><stop offset="1" stop-color="#2AA2D6"/></linearGradient><linearGradient id="paint2_linear_1_1072" x1="7.575" y1="9.408" x2="20.3" y2="9.408" gradientUnits="userSpaceOnUse"><stop stop-color="#84BB59"/><stop offset="1" stop-color="#2AA2D6"/></linearGradient><clipPath id="clip0_1_1072"><path fill="#fff" d="M0 0h215v35H0z"/></clipPath></defs></svg>